<svg width="33" height="18" viewBox="0 0 33 18" fill="none" xmlns="http://www.w3.org/2000/svg">
<path d="M7.02273 8C6.92898 7.71307 6.8054 7.45597 6.65199 7.22869C6.50142 6.99858 6.32103 6.80256 6.1108 6.64063C5.90341 6.47869 5.66762 6.35512 5.40341 6.26989C5.13921 6.18466 4.84943 6.14205 4.53409 6.14205C4.01705 6.14205 3.54688 6.27557 3.12358 6.54262C2.70029 6.80966 2.36364 7.20313 2.11364 7.72301C1.86364 8.2429 1.73864 8.88068 1.73864 9.63637C1.73864 10.392 1.86506 11.0298 2.1179 11.5497C2.37074 12.0696 2.71307 12.4631 3.14489 12.7301C3.57671 12.9972 4.0625 13.1307 4.60228 13.1307C5.10228 13.1307 5.54262 13.0241 5.9233 12.8111C6.30682 12.5952 6.60512 12.2912 6.81818 11.8991C7.03409 11.5043 7.14205 11.0398 7.14205 10.5057L7.46591 10.5739H4.84091V9.63637H8.16478V10.5739C8.16478 11.2926 8.01137 11.9176 7.70455 12.4489C7.40057 12.9801 6.98012 13.392 6.44318 13.6847C5.90909 13.9744 5.29546 14.1193 4.60228 14.1193C3.82955 14.1193 3.15057 13.9375 2.56534 13.5739C1.98296 13.2102 1.52841 12.6932 1.20171 12.0227C0.877844 11.3523 0.715912 10.5568 0.715912 9.63637C0.715912 8.94602 0.808241 8.32529 0.9929 7.77415C1.1804 7.22017 1.44461 6.74858 1.78551 6.35938C2.12642 5.97017 2.52983 5.67188 2.99574 5.46449C3.46165 5.2571 3.97443 5.15341 4.53409 5.15341C4.99432 5.15341 5.4233 5.22301 5.82103 5.36222C6.22159 5.49858 6.57813 5.69318 6.89063 5.94602C7.20597 6.19602 7.46875 6.49574 7.67898 6.84517C7.88921 7.19176 8.03409 7.57671 8.11364 8H7.02273Z" fill="white"/>
<path d="M7.57955 6.21023V5.27273H14.125V6.21023H11.3807V14H10.3239V6.21023H7.57955Z" fill="white"/>
<path d="M19.7841 5.27273H20.8409V11.0511C20.8409 11.6477 20.7003 12.1804 20.419 12.6491C20.1406 13.1151 19.7472 13.483 19.2386 13.7528C18.7301 14.0199 18.1335 14.1534 17.4489 14.1534C16.7642 14.1534 16.1676 14.0199 15.6591 13.7528C15.1506 13.483 14.7557 13.1151 14.4744 12.6491C14.196 12.1804 14.0568 11.6477 14.0568 11.0511V5.27273H15.1136V10.9659C15.1136 11.392 15.2074 11.7713 15.3949 12.1037C15.5824 12.4332 15.8494 12.6932 16.196 12.8835C16.5455 13.071 16.9631 13.1648 17.4489 13.1648C17.9347 13.1648 18.3523 13.071 18.7017 12.8835C19.0511 12.6932 19.3182 12.4332 19.5028 12.1037C19.6903 11.7713 19.7841 11.392 19.7841 10.9659V5.27273Z" fill="white"/>
<path d="M25.7841 5.27273H26.8409V11.0511C26.8409 11.6477 26.7003 12.1804 26.419 12.6491C26.1406 13.1151 25.7472 13.483 25.2386 13.7528C24.7301 14.0199 24.1335 14.1534 23.4489 14.1534C22.7642 14.1534 22.1676 14.0199 21.6591 13.7528C21.1506 13.483 20.7557 13.1151 20.4744 12.6491C20.196 12.1804 20.0568 11.6477 20.0568 11.0511V5.27273H21.1136V10.9659C21.1136 11.392 21.2074 11.7713 21.3949 12.1037C21.5824 12.4332 21.8494 12.6932 22.196 12.8835C22.5455 13.071 22.9631 13.1648 23.4489 13.1648C23.9347 13.1648 24.3523 13.071 24.7017 12.8835C25.0511 12.6932 25.3182 12.4332 25.5028 12.1037C25.6903 11.7713 25.7841 11.392 25.7841 10.9659V5.27273Z" fill="white"/>
<path d="M19.8295 0.545456L25.0114 15.2386H25.2159L30.3977 0.545456H32.6136L26.2045 18H24.0227L17.6136 0.545456H19.8295Z" fill="#2563EB"/>
</svg>
