<?xml version="1.0" standalone="no"?>
<!DOCTYPE svg PUBLIC "-//W3C//DTD SVG 20010904//EN"
 "http://www.w3.org/TR/2001/REC-SVG-20010904/DTD/svg10.dtd">
<svg version="1.0" xmlns="http://www.w3.org/2000/svg"
 width="1056.000000pt" height="1056.000000pt" viewBox="0 0 1056.000000 1056.000000"
 preserveAspectRatio="xMidYMid meet">
<metadata>
Created by potrace 1.14, written by Peter Selinger 2001-2017
</metadata>
<g transform="translate(0.000000,1056.000000) scale(0.100000,-0.100000)"
fill="#000000" stroke="none">
<path d="M5640 7983 c0 -7 44 -131 56 -158 7 -16 19 -50 28 -75 8 -25 29 -83
46 -130 17 -47 43 -116 56 -155 14 -38 29 -79 34 -90 10 -25 42 -111 69 -190
12 -33 26 -69 31 -80 12 -28 71 -188 74 -202 1 -7 5 -16 9 -19 4 -4 7 -17 7
-29 0 -11 4 -25 9 -30 5 -6 19 -39 31 -75 12 -36 27 -78 35 -95 7 -16 26 -68
41 -115 16 -47 32 -87 35 -90 3 -3 9 -17 13 -32 3 -15 11 -40 18 -55 6 -15 12
-32 14 -38 1 -5 21 -59 43 -120 l41 -110 -1 -775 c0 -849 1 -829 -61 -977 -16
-40 -34 -73 -39 -73 -5 0 -9 -7 -9 -16 0 -9 -37 -53 -83 -98 -145 -143 -322
-209 -554 -207 -199 3 -336 40 -458 127 -59 42 -135 109 -135 119 0 3 -9 15
-20 27 -26 28 -95 168 -105 213 -27 120 -28 157 -29 1084 l-1 955 -1185 0
c-652 1 -1194 0 -1205 -2 -19 -3 -20 -11 -20 -150 l0 -147 410 -2 c226 -1 424
-2 440 -2 l30 -1 0 -1240 -1 -1239 27 -10 c14 -5 32 -5 40 -1 7 5 20 5 29 0 9
-5 22 -5 30 0 8 5 18 6 24 3 12 -8 176 -6 184 1 3 3 5 564 5 1246 l0 1240 21
1 c27 1 773 1 807 0 l26 -1 1 -802 c0 -738 2 -856 17 -943 22 -119 78 -256
146 -357 47 -70 154 -182 209 -218 19 -13 37 -27 40 -31 8 -10 150 -89 161
-89 4 0 24 -8 45 -17 46 -20 40 -18 131 -42 109 -29 164 -35 328 -35 179 -1
246 7 380 44 160 45 311 131 431 246 47 45 135 157 148 186 3 10 8 8 16 -4 6
-9 17 -24 25 -32 8 -8 15 -17 15 -20 0 -17 147 -169 205 -212 109 -80 281
-158 395 -179 l35 -6 89 -242 c49 -133 89 -248 89 -254 0 -7 4 -13 9 -13 4 0
7 -3 6 -7 0 -5 2 -17 7 -28 11 -29 73 -198 102 -280 14 -38 31 -83 38 -100 7
-16 16 -41 20 -55 6 -25 13 -43 33 -90 6 -14 21 -54 33 -90 12 -36 26 -73 31
-82 8 -17 35 -18 357 -18 l349 0 25 73 c24 68 55 153 127 347 18 47 36 99 41
115 5 17 13 39 19 50 9 19 181 487 222 605 10 30 23 64 28 75 5 11 27 72 50
135 22 63 45 124 49 135 5 11 29 76 54 145 108 295 160 438 178 485 10 28 41
111 68 185 53 144 75 206 196 535 91 246 139 379 166 455 10 30 23 64 29 75 5
11 20 52 34 90 13 39 67 187 120 330 53 143 99 267 101 275 2 8 18 51 35 95
17 44 33 85 34 90 2 6 5 17 9 25 37 102 112 306 113 310 0 3 5 16 11 30 5 14
18 50 29 80 10 30 23 58 29 62 5 4 7 8 3 8 -4 0 4 30 18 68 46 121 176 476
185 502 4 14 21 61 38 105 17 44 31 85 31 90 0 7 -121 10 -352 10 l-351 0 -23
-65 c-13 -36 -68 -193 -124 -350 -56 -157 -102 -289 -104 -295 -2 -5 -6 -17
-9 -25 -7 -19 -93 -264 -108 -310 -7 -19 -16 -44 -21 -55 -4 -11 -12 -33 -17
-50 -5 -16 -30 -88 -56 -160 -26 -71 -53 -148 -60 -170 -7 -22 -36 -103 -63
-180 -27 -77 -66 -187 -86 -245 -20 -58 -40 -112 -43 -120 -3 -8 -7 -19 -9
-25 -1 -5 -21 -62 -44 -125 -23 -63 -45 -126 -50 -140 -4 -14 -31 -90 -59
-170 -29 -80 -60 -170 -71 -200 -10 -30 -24 -68 -31 -85 -7 -16 -14 -37 -15
-45 -1 -8 -13 -44 -27 -80 -14 -36 -46 -123 -71 -195 l-45 -130 0 853 -1 852
-27 1 c-80 3 -305 1 -308 -3 -3 -2 -6 -443 -8 -979 -1 -536 -5 -983 -9 -994
-3 -11 -11 -40 -18 -64 -38 -143 -134 -274 -266 -363 -61 -41 -184 -93 -194
-81 -4 4 -26 62 -49 128 -24 66 -52 145 -63 175 -11 30 -21 60 -23 65 -1 6 -5
17 -8 25 -3 8 -10 29 -15 45 -6 17 -29 82 -52 145 -22 63 -61 171 -85 240 -24
69 -66 190 -95 270 -28 80 -60 170 -70 200 -33 96 -70 203 -90 255 -24 64 -50
138 -210 595 -72 206 -138 393 -147 415 -8 22 -23 65 -33 95 -10 30 -37 107
-60 170 -23 63 -43 122 -45 130 -2 8 -18 53 -36 100 -26 70 -39 110 -54 160
-2 7 -16 42 -25 65 -4 11 -13 34 -18 50 -6 17 -13 39 -18 50 -4 11 -8 25 -10
30 -6 23 -167 474 -189 530 l-23 60 -351 0 c-193 1 -351 0 -351 -2z m1160
-3168 c5 -11 23 -60 40 -110 39 -110 44 -123 59 -155 7 -14 13 -32 15 -40 2
-8 6 -22 9 -30 3 -8 27 -71 52 -140 25 -69 54 -145 63 -170 9 -25 16 -48 17
-52 0 -3 3 -10 8 -14 8 -9 10 -44 1 -44 -13 0 -113 89 -152 134 -46 55 -114
184 -127 241 -22 96 -28 157 -29 295 -1 91 0 171 2 179 3 7 11 -6 19 -30 8
-24 18 -53 23 -64z m1485 -924 c-3 -6 -28 -74 -56 -153 -28 -79 -60 -168 -70
-198 -11 -30 -21 -59 -22 -65 -4 -13 -37 -105 -48 -130 -4 -11 -9 -29 -11 -39
-2 -14 -12 -20 -31 -21 -34 -2 -53 15 -66 58 -5 18 -32 97 -60 177 -28 79 -51
147 -51 150 0 4 30 17 68 29 89 31 202 92 281 152 66 50 77 56 66 40z"/>
<path d="M1319 6506 c-2 -2 -28 -7 -57 -10 -160 -19 -329 -83 -471 -179 -68
-45 -213 -180 -266 -247 -103 -129 -218 -384 -249 -550 -2 -14 -9 -45 -15 -70
-5 -25 -14 -77 -18 -115 -11 -100 -7 -478 6 -555 6 -36 13 -78 15 -95 3 -16 8
-41 11 -55 3 -14 9 -38 12 -55 2 -16 10 -36 15 -42 6 -7 7 -13 3 -13 -4 0 -2
-7 5 -15 7 -8 10 -15 7 -15 -18 0 89 -229 149 -319 16 -24 34 -51 39 -59 24
-37 44 -60 115 -132 108 -110 213 -180 380 -253 48 -22 161 -53 245 -68 109
-19 450 -16 484 5 3 2 22 7 41 10 128 20 335 117 449 211 86 70 231 243 231
274 0 6 4 11 8 11 17 0 90 175 116 279 31 120 37 190 38 415 0 105 0 196 -1
201 -1 7 -171 11 -528 10 l-528 0 -5 -29 c-3 -15 -3 -83 0 -149 l5 -122 355
-1 c195 -1 360 -2 367 -3 6 0 10 -11 8 -23 -2 -13 -6 -54 -10 -93 -4 -38 -8
-72 -10 -76 -2 -3 -6 -16 -9 -30 -28 -151 -145 -334 -276 -433 -237 -178 -606
-208 -889 -74 -345 164 -536 534 -533 1033 0 94 8 222 16 265 3 14 7 41 10 60
17 120 86 294 165 415 68 105 238 265 280 265 6 0 11 5 11 10 0 6 4 10 10 10
5 0 33 11 62 24 104 49 196 67 338 68 356 2 618 -170 761 -502 36 -84 37 -85
75 -87 88 -6 134 -6 139 -1 3 3 21 2 41 -1 20 -3 58 -4 84 -3 l48 4 -23 86
c-41 151 -80 232 -190 389 -52 74 -198 202 -310 270 -53 32 -195 95 -245 108
-8 3 -33 9 -55 15 -22 6 -50 13 -62 15 -13 3 -35 8 -50 11 -33 7 -337 16 -344
10z"/>
</g>
</svg>
